<svg width="270" height="200" viewBox="0 0 270 200" fill="none" xmlns="http://www.w3.org/2000/svg">
<path d="M105.252 184.554C104.906 186.4 100.183 188.823 96.1179 190.891C94.7803 191.572 87.0001 198.686 98.4118 196.413C100.413 196.014 107.217 194.427 110.366 192.971C113.559 191.495 111.864 186.697 112.42 184.833C112.417 184.833 106.563 177.554 105.252 184.554Z" fill="#FDB98D"/>
<path d="M96.118 190.891C91.5338 192.748 87.8828 195.098 89.0487 197.852C90.3609 200.949 97.4188 200.113 99.9741 198.95C101.357 198.321 103.836 196.859 105.681 196.149C107.897 195.295 109.691 194.212 111.195 193.556C113.281 192.646 113.606 189.626 112.337 187.197C112.186 188.094 111.428 189.516 110.494 190.067C106.577 192.374 101.738 194.89 99.3612 195.187C96.9844 195.483 95.6111 195.129 95.1191 193.964C94.3645 192.172 95.1963 191.606 96.118 190.891Z" fill="#51623D"/>
<path d="M95.9198 174.863C95.8046 177.747 93.846 178.67 87.3665 182.708C86.0992 183.502 78.8812 191.188 90.082 188.035C92.0406 187.482 98.7079 185.371 101.733 183.675C104.801 181.954 102.798 177.288 103.208 175.388C103.208 175.387 96.2044 167.746 95.9198 174.863Z" fill="#FDB98D"/>
<path d="M87.3666 182.707C82.9793 184.763 79.4827 187.541 80.8583 190.197C82.4067 193.183 89.3839 191.8 91.8356 190.441C93.164 189.708 95.5224 188.058 97.3081 187.205C99.4522 186.182 101.157 184.963 102.608 184.192C104.617 183.122 104.753 180.082 103.299 177.76C103.218 178.666 102.526 180.146 101.639 180.768C97.9095 183.379 93.2838 186.258 90.937 186.738C88.5901 187.218 87.1937 186.969 86.6131 185.849C85.7179 184.122 86.5036 183.492 87.3666 182.707Z" fill="#51623D"/>
<path d="M186.06 175.236C185.447 179.536 190.668 179.296 193.985 180.585C196.546 181.579 202.11 185.065 201.612 186.585C201.114 188.104 194.886 183.177 190.487 183.853C191.188 185.2 194.865 187.212 194.127 188.841C193.866 189.418 192.186 188.103 190.245 187.328C189.333 186.963 186.443 186.51 184.679 185.32C181.453 183.144 181.767 179.839 178.699 177.791L186.06 175.236Z" fill="#FDB88E"/>
<path d="M154.059 111.222C154.389 119.192 121.168 151.223 115.891 129.665C114.127 122.457 106.348 129.989 106.538 112.677C106.606 106.44 95.52 100.153 107.594 90.7571C112.016 87.3192 114.425 74.7209 126.374 87.7806C131.142 92.9976 154.059 111.222 154.059 111.222Z" fill="#4C4C4C"/>
<path d="M122.41 130.213C127.058 156.756 130.23 187.167 149.516 187.197C168.802 187.227 170.884 163.393 173.595 162.993C176.529 162.554 177.843 157.633 177.635 150.633C177.619 150.126 177.604 149.595 177.573 149.064C176.36 128.183 162.773 91.7643 139.162 96.7021C120.29 100.648 117.864 104.255 122.41 130.213Z" fill="#A9D3E0"/>
<path d="M164.012 159.518C164.012 159.518 132.245 149.712 121.562 115.802C117.256 102.13 109.984 129.289 111.856 153.528C112.684 164.245 115.341 173.455 120.37 180.748C129.023 193.301 162.939 197.884 164.012 159.518Z" fill="#51623D"/>
<path d="M103.647 176.954C103.647 176.954 142.528 110.205 116.435 110.904C97.3553 111.415 94.7758 174.778 94.7758 174.778C94.5292 176.713 103.043 177.892 103.647 176.954Z" fill="#51623D"/>
<path d="M104.48 183.08C104.48 183.08 105.258 108.383 129.045 113.238C131.506 113.741 133.402 114.731 134.817 116.114C135.51 116.793 136.099 117.57 136.565 118.421C139.183 122.767 141.94 130.18 145.175 137.179C147.223 141.611 149.463 145.877 151.981 149.094C161.036 160.658 173.594 162.994 173.594 162.994C175.775 193.806 145.992 197.969 135.551 186.024C130.218 179.922 126.61 170.258 124.837 163.216C118.846 174.868 113.535 185.402 113.535 185.402C112.257 186.455 104.027 185.768 104.48 183.08Z" fill="#657E47"/>
<path d="M170.179 149.974L169.502 157.242C169.436 157.947 168.328 157.954 168.395 157.242L169.072 149.974C169.138 149.269 170.246 149.262 170.179 149.974Z" fill="white"/>
<path d="M113.537 185.401C125.644 163.214 156.791 118.141 129.045 113.238C105.139 109.01 104.48 183.08 104.48 183.08C104.027 185.768 112.257 186.455 113.537 185.401Z" fill="#657E47"/>
<path d="M179.671 181.327C173.435 173.445 167.293 168.637 162.284 157.166C157.689 146.649 154.008 140.783 150.532 130.446L156.862 107.075C173.868 108.961 175.009 123.573 178.3 135.888C178.404 136.273 178.51 136.657 178.618 137.042C179.489 140.118 180.536 143.016 182.047 145.493C186.62 152.992 184.207 162.452 185.486 170.318C185.562 170.779 185.65 171.241 185.752 171.686C186.152 173.438 186.776 175.096 187.753 176.618C188.571 177.744 181.614 182.966 179.671 181.327Z" fill="#A9D3E0"/>
<path d="M185.746 171.686C183.732 170.38 182.955 168.521 183.371 166.023C183.381 165.963 183.402 165.905 183.434 165.854C183.467 165.802 183.508 165.758 183.558 165.723C183.607 165.687 183.663 165.662 183.722 165.649C183.781 165.635 183.842 165.633 183.902 165.643C183.962 165.653 184.019 165.675 184.07 165.707C184.122 165.739 184.166 165.781 184.201 165.83C184.236 165.88 184.262 165.936 184.275 165.995C184.289 166.054 184.291 166.115 184.281 166.175C183.987 167.938 184.37 169.282 185.48 170.318C185.556 170.779 185.644 171.236 185.746 171.686Z" fill="white"/>
<path d="M171.959 168.175C171.878 168.176 171.799 168.155 171.729 168.114C169.425 166.799 168.526 164.869 168.964 162.215C168.984 162.095 169.051 161.987 169.151 161.915C169.25 161.844 169.374 161.816 169.495 161.836C169.616 161.856 169.723 161.923 169.794 162.023C169.865 162.123 169.894 162.247 169.874 162.368C169.497 164.625 170.231 166.197 172.178 167.313C172.266 167.364 172.335 167.443 172.374 167.537C172.413 167.631 172.42 167.735 172.394 167.833C172.368 167.932 172.31 168.018 172.229 168.08C172.148 168.142 172.049 168.176 171.948 168.175H171.959Z" fill="white"/>
<path d="M203.845 167.332C206.378 167.332 208.431 165.857 208.431 164.037C208.431 162.217 206.378 160.742 203.845 160.742C201.312 160.742 199.258 162.217 199.258 164.037C199.258 165.857 201.312 167.332 203.845 167.332Z" fill="white"/>
<path d="M78.2487 156.853C80.7817 156.853 82.8352 155.378 82.8352 153.558C82.8352 151.738 80.7817 150.263 78.2487 150.263C75.7156 150.263 73.6621 151.738 73.6621 153.558C73.6621 155.378 75.7156 156.853 78.2487 156.853Z" fill="white"/>
<path d="M158.249 154.1C158.168 154.101 158.088 154.08 158.018 154.039C155.714 152.724 154.815 150.794 155.253 148.14C155.273 148.02 155.341 147.912 155.44 147.84C155.54 147.769 155.664 147.741 155.784 147.761C155.905 147.781 156.013 147.848 156.084 147.948C156.155 148.048 156.184 148.172 156.163 148.293C155.787 150.55 156.521 152.122 158.468 153.239C158.556 153.289 158.625 153.368 158.664 153.462C158.703 153.556 158.71 153.66 158.684 153.758C158.657 153.857 158.599 153.943 158.519 154.005C158.438 154.067 158.339 154.101 158.237 154.1H158.249Z" fill="white"/>
<path d="M175.07 152.601C174.989 152.601 174.909 152.58 174.839 152.539C172.535 151.224 171.636 149.294 172.074 146.641C172.094 146.52 172.162 146.412 172.261 146.341C172.361 146.269 172.484 146.241 172.605 146.261C172.726 146.281 172.834 146.349 172.905 146.448C172.976 146.548 173.004 146.672 172.984 146.793C172.607 149.051 173.341 150.622 175.288 151.739C175.377 151.789 175.446 151.868 175.485 151.962C175.524 152.056 175.531 152.16 175.504 152.258C175.478 152.357 175.42 152.444 175.339 152.505C175.259 152.567 175.16 152.601 175.058 152.601H175.07Z" fill="white"/>
<path d="M163.11 158.939C162.614 157.837 162.097 155.8 161.585 153.543C161.009 150.991 159.918 149.456 158.764 147.829C157.336 145.816 155.859 143.734 155.113 139.407C155.099 139.327 155.054 139.255 154.987 139.208C154.921 139.161 154.838 139.143 154.758 139.157C154.678 139.171 154.606 139.216 154.559 139.282C154.513 139.349 154.494 139.432 154.508 139.512C155.279 143.973 156.865 146.203 158.264 148.182C159.381 149.757 160.437 151.244 160.987 153.675C161.503 155.957 161.923 157.828 162.533 159.15C162.716 159.636 163.292 159.418 163.11 158.939Z" fill="#657E47"/>
<path d="M162.627 137.718C162.546 137.719 162.467 137.698 162.397 137.657C160.092 136.342 159.194 134.411 159.632 131.758C159.652 131.637 159.719 131.529 159.819 131.458C159.918 131.387 160.042 131.358 160.163 131.378C160.283 131.399 160.391 131.466 160.462 131.566C160.533 131.665 160.562 131.789 160.542 131.91C160.165 134.168 160.899 135.739 162.846 136.856C162.934 136.907 163.003 136.985 163.042 137.079C163.081 137.173 163.088 137.278 163.062 137.376C163.036 137.474 162.978 137.561 162.897 137.623C162.816 137.685 162.717 137.718 162.616 137.718H162.627Z" fill="white"/>
<path d="M178.613 137.042C176.078 136.15 175.477 133.737 175.076 131.333C175.066 131.274 175.068 131.212 175.081 131.153C175.095 131.094 175.12 131.038 175.155 130.989C175.19 130.939 175.235 130.898 175.286 130.865C175.338 130.833 175.395 130.812 175.455 130.802C175.514 130.792 175.576 130.793 175.635 130.807C175.694 130.821 175.749 130.846 175.799 130.881C175.848 130.916 175.89 130.961 175.922 131.013C175.954 131.064 175.976 131.121 175.986 131.181C176.373 133.51 176.908 135.092 178.29 135.888C178.397 136.276 178.504 136.66 178.613 137.042Z" fill="white"/>
<path d="M149.032 136.449C148.951 136.45 148.871 136.428 148.801 136.388C146.497 135.073 145.599 133.142 146.036 130.489C146.057 130.368 146.124 130.26 146.223 130.189C146.323 130.118 146.447 130.089 146.568 130.109C146.688 130.13 146.796 130.197 146.867 130.297C146.938 130.396 146.967 130.52 146.947 130.641C146.57 132.899 147.304 134.47 149.251 135.587C149.339 135.638 149.408 135.716 149.447 135.81C149.486 135.904 149.493 136.008 149.467 136.107C149.44 136.205 149.382 136.292 149.302 136.354C149.221 136.416 149.122 136.449 149.02 136.449H149.032Z" fill="white"/>
<path d="M164.701 121.336C164.669 121.335 164.638 121.332 164.607 121.326C160.425 120.463 159.568 115.176 159.538 114.952C159.525 114.834 159.557 114.715 159.63 114.62C159.702 114.525 159.808 114.462 159.926 114.444C160.043 114.426 160.163 114.454 160.261 114.522C160.358 114.591 160.425 114.695 160.448 114.812C160.459 114.876 161.255 119.692 164.798 120.422C164.91 120.445 165.009 120.508 165.077 120.601C165.145 120.693 165.176 120.807 165.164 120.921C165.153 121.035 165.099 121.141 165.014 121.217C164.929 121.294 164.819 121.336 164.704 121.336H164.701Z" fill="white"/>
<path d="M130.254 98.5779L144.759 104.998C147.885 108.203 140.436 116.535 137.771 114.83C136.081 113.748 130.974 110.561 130.974 110.561L130.254 98.5779Z" fill="#E76943"/>
<path d="M130.599 94.7155C139.749 99.689 138.457 107.759 134.934 112.434C132.488 115.678 127.165 114.95 124.68 114.408L124.649 114.401C123.035 114.103 121.517 113.418 120.226 112.404C119.934 112.183 119.643 111.953 119.336 111.722C118.842 111.353 118.281 111.018 117.646 110.627C115.669 109.402 115.059 108.484 114.642 107.646C112.65 103.642 116.6 101.893 113.105 95.8415C110.853 91.9409 124.621 91.4655 130.599 94.7155Z" fill="#FDB88E"/>
<path d="M123.758 111.54C124.204 111.849 124.533 112.299 124.694 112.818C124.855 113.336 124.838 113.894 124.647 114.402C123.033 114.104 121.515 113.419 120.224 112.405C120.269 112.318 120.32 112.233 120.376 112.152C120.743 111.622 121.306 111.26 121.94 111.145C122.575 111.03 123.228 111.172 123.758 111.54V111.54Z" fill="#E76943"/>
<path d="M128.939 111.707C128.96 111.709 128.981 111.709 129.001 111.707C129.038 111.699 129.074 111.683 129.105 111.661C129.136 111.64 129.163 111.612 129.183 111.58C129.204 111.547 129.217 111.512 129.224 111.474C129.231 111.437 129.23 111.398 129.221 111.361C128.706 108.989 131.284 107.862 131.393 107.816C131.463 107.785 131.519 107.728 131.547 107.656C131.575 107.585 131.574 107.505 131.543 107.434C131.513 107.364 131.456 107.308 131.384 107.28C131.313 107.252 131.233 107.253 131.163 107.284C131.132 107.298 128.035 108.642 128.652 111.483C128.667 111.548 128.704 111.605 128.756 111.646C128.808 111.687 128.873 111.708 128.939 111.707V111.707Z" fill="#E76943"/>
<path d="M120.99 108.715C120.068 110.446 118.715 110.606 118.647 110.613C118.577 110.617 118.509 110.593 118.457 110.548C118.404 110.503 118.371 110.439 118.364 110.37C118.357 110.3 118.377 110.231 118.419 110.176C118.462 110.122 118.524 110.085 118.592 110.074C118.667 110.065 120.273 109.853 120.97 107.271C120.992 107.206 121.038 107.151 121.099 107.118C121.16 107.086 121.231 107.077 121.297 107.095C121.364 107.113 121.421 107.156 121.457 107.215C121.494 107.274 121.506 107.344 121.492 107.412C121.374 107.864 121.206 108.301 120.99 108.715Z" fill="#51623D"/>
<path d="M127.553 108.696C127.406 108.977 127.195 109.22 126.937 109.405C126.743 109.554 126.514 109.651 126.271 109.685C126.029 109.719 125.782 109.69 125.554 109.6C124.978 109.37 124.773 108.773 124.573 108.201C124.485 107.918 124.369 107.646 124.227 107.386C123.724 106.564 122.513 105.727 122.499 105.719C122.467 105.7 122.44 105.675 122.418 105.645C122.396 105.615 122.381 105.581 122.373 105.545C122.365 105.508 122.365 105.471 122.372 105.435C122.379 105.398 122.393 105.364 122.414 105.333C122.435 105.303 122.462 105.277 122.493 105.257C122.525 105.237 122.56 105.224 122.596 105.218C122.633 105.213 122.67 105.215 122.706 105.224C122.742 105.233 122.775 105.25 122.804 105.273C122.859 105.31 124.122 106.182 124.686 107.104C124.85 107.397 124.984 107.706 125.083 108.027C125.26 108.529 125.413 108.961 125.762 109.105C125.906 109.158 126.06 109.174 126.212 109.15C126.363 109.126 126.505 109.064 126.626 108.969C126.819 108.831 126.975 108.648 127.083 108.436C127.19 108.224 127.245 107.99 127.243 107.752C127.242 107.682 127.268 107.614 127.316 107.562C127.363 107.511 127.429 107.48 127.499 107.476C127.569 107.472 127.638 107.495 127.691 107.541C127.744 107.587 127.778 107.652 127.784 107.722C127.795 108.061 127.716 108.398 127.553 108.696V108.696Z" fill="#E76943"/>
<path d="M125.584 101.827C125.204 102.466 124.665 102.996 124.02 103.366C123.956 103.399 123.882 103.405 123.814 103.384C123.746 103.362 123.689 103.314 123.656 103.25C123.623 103.187 123.616 103.113 123.638 103.044C123.66 102.976 123.708 102.919 123.771 102.886C123.856 102.841 125.845 101.768 125.659 99.1352C125.655 99.0986 125.657 99.0613 125.667 99.0258C125.678 98.9902 125.695 98.9571 125.718 98.9285C125.742 98.8999 125.771 98.8763 125.803 98.8593C125.836 98.8423 125.872 98.8322 125.909 98.8296C125.946 98.827 125.983 98.832 126.017 98.8442C126.052 98.8565 126.084 98.8757 126.111 98.9007C126.139 98.9258 126.16 98.9562 126.175 98.9899C126.19 99.0237 126.198 99.0602 126.199 99.0972C126.287 100.049 126.072 101.005 125.584 101.827Z" fill="#51623D"/>
<path d="M128.24 102.987C129.594 104.247 131.848 103.648 132.306 101.681C132.374 101.384 132.382 101.077 132.328 100.777C132.273 100.477 132.158 100.191 131.99 99.937C130.857 98.2295 128.485 98.4914 127.691 100.212C127.478 100.673 127.416 101.19 127.514 101.689C127.613 102.188 127.867 102.642 128.24 102.987V102.987Z" fill="#E76943"/>
<path d="M137.541 105.254C132.769 101.902 134.2 94.6405 127.677 95.0051C120.513 95.4065 118.052 103.915 111.275 98.4292L107.19 98.0531C107.19 98.0531 97.7574 82.7091 119.838 78.835C125.242 77.8866 127.777 73.2719 136.418 78.3481C140.359 80.6647 140.806 80.7962 147.603 81.027C153.227 81.2185 157.155 85.1549 157.962 92.5385C158.628 98.6345 168.907 99.8067 164.875 109.382C159.921 106.729 154.437 109.036 154.091 116.074C153.669 124.639 146.372 122.019 147.143 130.405C147.524 134.533 147.765 136.103 145.23 137.372C143.271 132.757 138.202 132.065 138.693 124.636C139.236 116.423 145.26 110.677 137.541 105.254Z" fill="#4C4C4C"/>
<path d="M125.195 165.938C125.245 165.938 125.295 165.925 125.338 165.9C125.382 165.876 125.418 165.84 125.444 165.796C131.481 155.496 135.607 141.719 135.967 134.861C135.971 134.785 135.944 134.71 135.893 134.653C135.842 134.596 135.771 134.562 135.694 134.558C135.656 134.556 135.619 134.561 135.583 134.574C135.547 134.586 135.514 134.606 135.486 134.632C135.458 134.657 135.435 134.688 135.419 134.722C135.403 134.756 135.394 134.794 135.392 134.831C135.035 141.622 130.941 155.279 124.947 165.505C124.921 165.548 124.908 165.598 124.907 165.649C124.907 165.7 124.92 165.75 124.945 165.794C124.97 165.838 125.007 165.874 125.051 165.9C125.094 165.925 125.144 165.939 125.195 165.938V165.938Z" fill="#51623D"/>
<path d="M0.0044841 143.911C-0.225938 155.277 8.41488 165.672 28.0503 165.672C47.6857 165.672 59.5708 158.827 59.7471 143.266C59.9407 126.178 42.6659 118.023 28.3809 119.328C10.6569 120.947 0.29712 129.258 0.0044841 143.911Z" fill="white"/>
<path d="M10.303 146.994C9.36285 145.75 8.50799 144.36 8.1347 142.829C7.9158 141.927 7.86511 140.934 8.22803 140.06C8.47458 139.47 8.91929 138.945 9.52991 138.726C10.008 138.557 10.5749 138.637 10.9228 139.029C11.1096 139.247 11.2296 139.515 11.2684 139.8C11.3572 140.362 11.4781 140.895 11.7523 141.398C12.2443 142.298 13.0611 142.941 13.7697 143.658C14.661 144.531 15.3122 145.619 15.6603 146.817C15.8262 147.411 15.9402 148.017 15.8101 148.631C15.7003 149.115 15.4641 149.562 15.1257 149.925C13.8169 151.359 11.0588 151.687 9.76148 150.064C9.40259 149.585 9.12968 149.048 8.955 148.476C8.72412 147.764 8.59005 147.024 8.55638 146.276C8.47343 144.677 8.72804 142.93 9.54834 141.537C10.2523 140.337 11.3399 139.308 12.651 138.814C13.3087 138.565 14.0205 138.494 14.7143 138.609C15.4081 138.724 16.0592 139.021 16.6016 139.469C17.1586 139.903 17.5924 140.475 17.8597 141.128C18.0677 141.696 18.167 142.297 18.1523 142.901C18.1523 143.471 18.082 144.037 18.0371 144.602C17.9979 145.063 17.9518 145.547 18.0774 145.995C18.294 146.761 19.2871 147.076 19.9807 146.821C20.6167 146.59 20.9773 145.864 21.1846 145.247C21.4923 144.333 21.5936 143.355 21.6213 142.395C21.6527 141.381 21.5876 140.366 21.4266 139.364C21.3114 138.631 21.157 137.831 20.7918 137.183C20.3851 136.459 19.4357 136.013 18.5694 136.105C18.2018 136.143 17.8147 136.294 17.5901 136.601C17.3089 136.985 17.3735 137.485 17.5255 137.906C17.665 138.295 17.8977 138.643 18.0601 139.022C18.2268 139.401 18.3475 139.799 18.4196 140.208C18.5357 140.869 18.4786 141.548 18.2537 142.18C18.0466 142.72 17.7458 143.218 17.3654 143.653C17.0198 144.057 16.6476 144.46 16.1534 144.677C15.484 144.974 14.7282 145.043 14.0059 145.099C13.3307 145.151 12.5081 145.099 11.9321 145.538C11.1613 146.139 11.7731 147.384 12.4367 147.803C12.6517 147.939 12.8918 148.031 13.1427 148.072C13.3936 148.113 13.6502 148.103 13.8973 148.043C14.1444 147.983 14.377 147.874 14.5813 147.723C14.7855 147.571 14.9574 147.38 15.0865 147.161C15.3089 146.784 15.3492 146.279 15.6879 145.977C15.7986 145.882 15.9329 145.819 16.0765 145.795C16.2202 145.77 16.3678 145.785 16.5036 145.838C16.8464 145.975 17.155 146.186 17.408 146.455C17.755 146.8 18.0726 147.174 18.3574 147.573C19.0162 148.482 19.5945 149.447 20.0855 150.457C20.301 150.891 20.5038 151.333 20.6754 151.785C20.8551 152.261 21.021 152.78 20.7906 153.27C20.5302 153.803 19.8954 154.022 19.3378 154.018C18.7053 154.018 18.0025 153.748 17.6373 153.211C17.4835 152.966 17.4019 152.683 17.4019 152.394C17.4019 152.105 17.4835 151.822 17.6373 151.577C17.915 151.177 18.3747 150.898 18.7894 150.675C19.3428 150.377 19.936 150.16 20.551 150.03C21.0925 149.915 21.6962 149.865 22.225 150.061C22.4957 150.163 22.7391 150.327 22.9359 150.539C23.1326 150.751 23.2774 151.006 23.3587 151.284C23.5257 151.808 23.5223 152.37 23.6951 152.891C23.781 153.155 23.9467 153.386 24.1692 153.551C24.3917 153.716 24.66 153.808 24.9371 153.814C25.535 153.844 26.0892 153.555 26.5869 153.237C27.1238 152.891 27.6134 152.491 28.133 152.128C28.5363 151.845 28.9971 151.541 29.504 151.517C30.367 151.477 30.7552 152.272 30.943 152.99C31.1734 153.851 31.2114 154.783 31.579 155.602C31.7334 155.949 31.9603 156.273 32.3163 156.427C32.7679 156.623 33.3198 156.53 33.7703 156.383C35.1528 155.936 36.1897 154.681 36.6609 153.345C37.1463 151.95 37.2921 150.46 37.0861 148.998C37.002 148.411 36.8556 147.792 36.51 147.298C36.2326 146.925 35.8301 146.664 35.3763 146.564C34.4546 146.322 33.4903 146.486 32.5548 146.363C32.1942 146.315 31.8094 146.215 31.564 145.926C31.2748 145.586 31.284 145.119 31.3612 144.701C31.4315 144.323 31.5548 143.958 31.6204 143.579C31.6897 143.178 31.7228 142.771 31.7195 142.364C31.7283 141.675 31.5888 140.992 31.3105 140.362C31.087 139.886 30.7529 139.439 30.2736 139.209C30.0446 139.107 29.7959 139.058 29.5455 139.065C29.2952 139.072 29.0496 139.135 28.8266 139.249C27.5915 139.826 26.8288 141.147 26.376 142.38C25.9246 143.6 25.6748 144.886 25.6364 146.187C25.6082 146.648 25.6506 147.11 25.762 147.558C25.9302 148.135 26.4705 148.639 26.9694 148.965C27.6475 149.392 28.4204 149.645 29.2195 149.701C30.0259 149.774 30.8889 149.769 31.6032 150.197C32.8797 150.961 32.8855 152.62 33.7012 153.727C33.7552 153.804 33.8166 153.876 33.8843 153.942C33.8279 153.89 33.8959 153.942 33.9247 153.958C33.8555 153.933 33.9512 153.965 33.9765 153.971C34.0019 153.977 34.0502 153.987 34.0917 153.993C34.0284 153.983 34.1539 153.993 34.1804 153.993C34.2357 153.993 34.2956 153.993 34.3463 153.993C34.4615 153.993 34.5768 153.984 34.692 153.972C35.3513 153.891 36.0017 153.749 36.6344 153.547C37.4714 153.292 38.2889 152.978 39.0804 152.605C40.714 151.837 42.3835 150.817 43.4791 149.347C43.9618 148.7 44.3317 147.949 44.4238 147.139C44.5252 146.241 44.289 145.355 43.8605 144.57C43.3293 143.596 42.5355 142.518 41.3949 142.249C40.373 142.007 39.3211 142.49 38.4421 142.971C37.1183 143.7 35.8959 144.607 34.6401 145.448C34.2807 145.688 33.9185 145.926 33.5537 146.162C33.223 146.374 32.8935 146.573 32.632 146.872C32.2864 147.272 32.1228 147.808 32.2956 148.318C32.3771 148.543 32.5124 148.745 32.6898 148.906C32.8671 149.067 33.081 149.182 33.3129 149.241C33.9419 149.411 34.5606 149.178 35.0825 148.831C36.3015 148.024 37.1897 146.846 38.2439 145.854C38.6667 145.455 39.131 145.074 39.6794 144.864C40.2279 144.654 40.812 144.707 41.3592 144.922C42.653 145.43 43.221 146.679 43.7303 147.882C44.0183 148.561 44.2994 149.259 44.713 149.874C44.993 150.29 45.372 150.719 45.8709 150.861C46.8122 151.128 47.5345 150.169 47.9055 149.439C48.5714 148.14 48.7477 146.593 48.6544 145.152C48.553 143.576 48.1025 141.975 47.2292 140.653C46.5656 139.646 45.6543 138.846 44.6347 138.214C43.713 137.637 42.7141 137.201 41.7429 136.714C40.8961 136.291 40.032 135.819 39.3857 135.112C38.6333 134.29 38.2266 132.941 38.8983 131.945C39.5988 130.907 41.1472 130.858 42.1058 131.553C43.1899 132.338 43.66 133.779 43.6127 135.078C43.5687 135.87 43.3678 136.645 43.0217 137.358C42.7222 138.005 42.3005 138.657 41.6956 139.055C41.451 139.226 41.1627 139.323 40.8647 139.335C40.5667 139.348 40.2714 139.274 40.0136 139.124C39.4283 138.778 39.1564 138.184 38.8615 137.599C38.6852 137.242 38.5089 136.882 38.305 136.538C38.1011 136.194 37.8799 135.867 37.5365 135.663C37.3994 135.576 37.2429 135.524 37.0809 135.512C36.919 135.501 36.7566 135.529 36.6083 135.595C36.46 135.662 36.3304 135.764 36.231 135.892C36.1316 136.021 36.0656 136.172 36.0388 136.332C35.8994 137.035 36.4028 137.66 36.9801 137.975C37.457 138.234 37.934 138.595 38.1725 139.097C38.7485 140.311 37.7001 141.54 36.8648 142.314C35.5849 143.503 34.0364 144.483 32.3578 144.987C30.1446 145.652 27.8058 145.354 25.7735 144.284C25.05 143.903 24.2758 143.439 23.7273 142.832C23.4357 142.518 23.2115 142.147 23.0685 141.742C22.9254 141.338 22.8666 140.908 22.8955 140.48C22.9439 139.719 23.1815 138.983 23.5868 138.338C23.9799 137.71 24.5082 137.179 25.1329 136.783C25.7343 136.403 26.4786 136.102 27.201 136.139C28.5201 136.203 29.6699 137.285 30.1872 138.446C30.6861 139.57 30.731 141.162 29.7955 142.082C28.9234 142.94 27.3023 142.82 26.5558 141.852C25.8092 140.884 26.118 139.507 26.8162 138.606C27.7632 137.382 28.9141 136.257 30.337 135.607C31.299 135.166 32.3209 134.987 33.3693 134.903C34.3152 134.827 35.2853 134.801 36.1217 134.295C37.0561 133.73 37.419 132.687 37.2738 131.642C37.1517 130.75 36.6863 129.867 35.9121 129.377C35.0699 128.844 34.0998 129.031 33.4016 129.709C32.8878 130.213 32.5456 130.879 32.3002 131.548C32.1199 132.033 32.0645 132.556 32.1389 133.069C32.2956 134.163 32.9039 135.158 33.5272 136.049C34.1505 136.939 34.8429 137.732 35.457 138.606C35.7911 139.083 36.351 139.858 36.0123 140.464C35.7277 140.973 35.0595 141.063 34.5445 140.947C33.8532 140.791 33.2242 140.346 32.6804 139.909C31.9467 139.297 31.2753 138.614 30.6757 137.87C29.3877 136.315 28.239 134.56 27.5178 132.665C27.2574 131.981 27.0281 131.227 27.065 130.487C27.0711 130.196 27.144 129.91 27.2781 129.651C27.5685 129.125 28.1422 128.693 28.6837 128.457C29.7494 127.996 30.9879 128.193 31.9661 128.783C32.9442 129.372 34.0019 130.409 33.7657 131.678C33.5871 132.645 32.6735 133.253 31.7414 133.329C31.169 133.364 30.5985 133.235 30.0962 132.958C29.8116 132.808 29.5593 132.612 29.2897 132.44C29.0205 132.276 28.7407 132.13 28.4521 132.004C27.2835 131.505 26.0241 131.255 24.7539 131.269C23.6628 131.269 22.5119 131.427 21.528 131.914C20.8597 132.243 20.1604 132.8 20.1719 133.617C20.1869 134.706 21.195 135.578 22.1916 135.799C23.1018 135.998 24.361 135.774 24.9359 134.968C25.071 134.756 25.1554 134.516 25.1825 134.266C25.2367 133.923 25.2495 133.574 25.2205 133.228C25.1715 132.404 24.9047 131.607 24.4474 130.92C24.1882 130.547 23.8515 130.235 23.4603 130.004C23.0692 129.773 22.6329 129.63 22.1812 129.583C21.5523 129.532 20.9191 129.588 20.309 129.749C19.5532 129.927 18.8142 130.17 18.1004 130.475C16.7957 131.027 15.6001 131.809 14.5704 132.783C12.9471 134.345 11.6728 136.655 12.2535 138.967C12.5265 140.054 13.2178 141.222 14.2847 141.677C15.2974 142.11 16.4426 141.779 17.3861 141.331C18.3977 140.843 19.3079 140.178 20.2123 139.518C20.9773 138.959 21.7607 138.449 22.7089 138.267C23.4681 138.122 24.3391 138.215 24.8748 138.834C25.361 139.395 25.4359 140.182 25.2435 140.88C24.9901 141.803 24.3218 142.555 23.5534 143.091C23.0347 143.44 22.4681 143.712 21.8713 143.898C21.3079 144.082 20.7468 144.186 20.248 144.524C19.5959 144.965 19.1742 145.734 19.2963 146.532C19.354 146.898 19.5192 147.239 19.7709 147.511C20.0227 147.783 20.3496 147.973 20.71 148.058C21.8068 148.333 22.8149 147.773 23.7481 147.276C24.6575 146.778 25.6249 146.394 26.6284 146.133C27.3761 145.948 28.5443 145.741 29.0685 146.489C29.5927 147.238 29.1319 148.205 28.5835 148.797C27.4775 149.982 24.7573 151.335 25.959 153.315C26.2055 153.718 26.6618 153.924 27.1019 154.04C27.7054 154.182 28.327 154.231 28.9452 154.186C30.3124 154.13 31.6558 153.81 32.9016 153.243C33.7696 152.814 34.6113 152.333 35.4224 151.803C36.1162 151.371 36.7865 150.902 37.4305 150.398C38.3154 149.699 39.1691 148.911 39.7889 147.96C40.197 147.353 40.4679 146.663 40.5827 145.94C40.6477 145.368 40.6431 144.79 40.5689 144.219C40.517 143.709 40.441 143.193 40.4813 142.679C40.5389 141.915 40.8926 141.255 41.4099 140.693C42.2625 139.77 43.5667 139.462 44.6692 140.136C45.6531 140.736 46.2753 141.904 46.4562 143.02C46.7419 144.794 45.7361 146.285 44.4757 147.422C43.1749 148.595 41.6403 149.45 40.2613 150.519C39.7739 150.898 39.2624 151.319 38.9939 151.867C38.9469 151.963 38.9128 152.065 38.8926 152.17C38.8812 152.264 38.8777 152.359 38.8822 152.453C38.9312 152.728 39.0616 152.982 39.2566 153.182C40.4018 154.487 42.6392 154.596 43.8305 153.311C44.7338 152.339 44.8317 150.965 45.0978 149.727C45.3363 148.616 45.6197 147.479 46.1727 146.479C46.5894 145.693 47.2314 145.05 48.0161 144.633C49.0208 144.121 50.174 143.992 51.2869 143.986C51.56 143.986 51.56 144.408 51.2869 144.411C50.1291 144.411 48.9044 144.554 47.9044 145.185C47.0864 145.7 46.5472 146.522 46.1935 147.407C45.7326 148.56 45.4953 149.796 45.2649 151.011C45.0414 152.187 44.6151 153.346 43.6001 154.062C42.1807 155.064 39.9318 154.73 38.8545 153.361C38.4778 152.881 38.3326 152.314 38.5803 151.746C38.828 151.177 39.32 150.733 39.7924 150.351C41.1346 149.265 42.66 148.43 43.9688 147.3C45.1842 146.253 46.3179 144.844 46.0426 143.133C45.8663 142.035 45.2441 140.847 44.1992 140.365C42.9491 139.788 41.7555 140.667 41.1645 141.749C40.9341 142.171 40.8765 142.623 40.8926 143.124C40.9099 143.655 40.9963 144.18 41.032 144.708C41.0825 145.328 41.0319 145.951 40.8822 146.554C40.6552 147.351 40.2665 148.093 39.7405 148.733C38.9594 149.726 37.9697 150.542 36.9501 151.271C36.2266 151.791 35.4731 152.268 34.7058 152.72C33.9661 153.154 33.2276 153.594 32.4212 153.893C31.1384 154.373 29.7792 154.617 28.4095 154.613C27.4026 154.601 26.1053 154.429 25.5581 153.459C25.2943 153.019 25.1868 152.503 25.2527 151.994C25.3392 151.545 25.54 151.126 25.8357 150.778C26.4613 149.985 27.3208 149.423 28.0455 148.731C28.3346 148.454 28.6388 148.14 28.7828 147.758C28.898 147.439 28.9234 146.982 28.7033 146.699C28.4833 146.417 28.0743 146.382 27.7459 146.389C27.2469 146.413 26.7537 146.507 26.2804 146.667C25.3465 146.959 24.4477 147.354 23.6006 147.845C22.6559 148.384 21.4612 148.783 20.3874 148.399C20.0114 148.269 19.6762 148.042 19.4153 147.741C19.1545 147.441 18.9772 147.077 18.9012 146.686C18.83 146.275 18.8644 145.852 19.0013 145.458C19.1381 145.064 19.3729 144.712 19.6834 144.434C20.0763 144.086 20.5427 143.831 21.0475 143.689C21.6847 143.499 22.3022 143.326 22.8909 142.997C23.7193 142.536 24.4866 141.829 24.7965 140.908C25.0027 140.295 24.997 139.556 24.5407 139.074C23.9958 138.497 23.1133 138.553 22.4105 138.769C21.5084 139.046 20.7975 139.613 20.0394 140.159C19.112 140.832 18.1546 141.485 17.0877 141.915C16.0762 142.321 14.9241 142.48 13.9218 141.961C12.8768 141.42 12.1752 140.266 11.8756 139.158C11.2569 136.867 12.3434 134.53 13.8895 132.873C14.8372 131.872 15.9533 131.045 17.1868 130.431C17.8611 130.092 18.562 129.808 19.2825 129.583C19.9736 129.35 20.6898 129.2 21.4162 129.137C22.4416 129.071 23.4704 129.339 24.2458 130.034C24.8944 130.611 25.3046 131.434 25.5074 132.273C25.6979 133.003 25.72 133.768 25.5719 134.508C25.391 135.316 24.755 135.822 23.9923 136.084C22.9209 136.452 21.6674 136.286 20.7837 135.559C20.0613 134.966 19.5164 133.895 19.862 132.96C20.1766 132.121 21.0141 131.622 21.8079 131.318C22.8829 130.908 24.0753 130.787 25.2182 130.837C26.4891 130.885 27.7374 131.188 28.8888 131.729C29.1725 131.864 29.4466 132.018 29.7091 132.191C29.9695 132.379 30.2454 132.545 30.534 132.687C31.0177 132.908 31.5603 132.964 32.079 132.847C32.9385 132.633 33.5767 131.838 33.3463 130.933C33.1954 130.336 32.7518 129.85 32.2737 129.484C31.822 129.125 31.3011 128.864 30.7437 128.716C30.157 128.56 29.5368 128.589 28.9671 128.799C28.4383 129.004 27.8726 129.437 27.6353 129.914C27.5361 130.148 27.4912 130.401 27.504 130.655C27.5144 130.997 27.5663 131.336 27.6583 131.666C27.9011 132.526 28.2445 133.355 28.6814 134.135C29.1748 135.049 29.7355 135.926 30.3589 136.757C30.9556 137.565 31.6201 138.321 32.3451 139.016C32.9074 139.551 33.5318 140.082 34.2507 140.392C34.4884 140.503 34.7466 140.564 35.0088 140.57C35.214 140.572 35.4132 140.501 35.571 140.369C35.6081 140.342 35.6393 140.307 35.6628 140.268C35.6864 140.228 35.7018 140.184 35.7081 140.138C35.7208 140.08 35.7081 140.166 35.7081 140.129C35.7093 140.113 35.7093 140.097 35.7081 140.081C35.7081 140.054 35.7081 140.028 35.7081 140.001C35.7019 139.939 35.6891 139.878 35.6701 139.819C35.571 139.481 35.3567 139.166 35.1551 138.874C34.556 138.008 33.8613 137.212 33.2518 136.353C32.617 135.459 32.011 134.471 31.7898 133.382C31.5386 132.146 31.9638 130.903 32.7011 129.901C33.3221 129.055 34.2749 128.442 35.351 128.674C37.2681 129.086 38.2197 131.616 37.5169 133.325C37.0757 134.394 36.0192 134.99 34.9178 135.171C34.0307 135.321 33.1251 135.303 32.238 135.461C31.038 135.675 29.9132 136.195 28.9717 136.97C28.285 137.542 27.6664 138.19 27.1284 138.904C26.7664 139.359 26.5672 139.922 26.5627 140.504C26.5627 141.05 26.7793 141.6 27.2447 141.912C27.5057 142.082 27.8033 142.189 28.1133 142.223C28.4232 142.256 28.7367 142.216 29.0282 142.105C30.2805 141.576 30.2863 139.843 29.8785 138.76C29.443 137.606 28.2517 136.473 26.9556 136.555C26.232 136.601 25.4935 136.988 24.9417 137.441C24.3693 137.906 23.9195 138.505 23.6317 139.184C23.3126 139.95 23.1847 140.878 23.4912 141.668C23.755 142.349 24.3126 142.853 24.9048 143.25C25.4809 143.645 26.094 143.983 26.7355 144.259C27.7319 144.683 28.8017 144.907 29.8842 144.918C31.3301 144.906 32.75 144.533 34.0157 143.833C34.8626 143.38 35.655 142.832 36.3775 142.199C36.9328 141.71 37.5158 141.139 37.7981 140.438C37.9778 139.991 37.9766 139.515 37.7059 139.113C37.5515 138.892 37.3559 138.702 37.1298 138.556C36.8706 138.378 36.578 138.258 36.336 138.053C35.8233 137.618 35.5054 136.899 35.6448 136.222C35.7807 135.57 36.4028 135.029 37.0814 135.08C37.8499 135.137 38.3488 135.762 38.7128 136.382C39.0769 137.002 39.3315 137.721 39.7497 138.323C40.0827 138.806 40.7025 139.069 41.2555 138.822C41.8996 138.534 42.3247 137.847 42.6196 137.237C43.266 135.899 43.4445 134.305 42.7429 132.95C42.4606 132.406 42.0355 131.911 41.4629 131.669C41.1826 131.549 40.8785 131.494 40.5739 131.509C40.2692 131.524 39.972 131.608 39.7048 131.756C38.6679 132.375 38.9052 133.842 39.5527 134.653C40.1449 135.397 41.0194 135.873 41.8569 136.294C42.8224 136.782 43.8155 137.217 44.7372 137.777C45.7674 138.381 46.668 139.183 47.3871 140.137C48.2869 141.369 48.7938 142.866 49 144.369C49.2062 145.872 49.1152 147.484 48.5899 148.932C48.2442 149.855 47.6544 150.958 46.6405 151.267C45.5667 151.595 44.6957 150.69 44.1957 149.85C43.8167 149.212 43.5459 148.515 43.2533 147.835C42.9964 147.235 42.7256 146.609 42.2982 146.104C41.8789 145.599 41.2904 145.264 40.6426 145.162C40.1184 145.088 39.6276 145.308 39.2071 145.602C38.6794 145.97 38.2324 146.453 37.7923 146.916C37.2923 147.442 36.7992 147.975 36.2554 148.455C35.3176 149.285 34.0295 150.165 32.7645 149.475C32.5371 149.351 32.3388 149.179 32.1826 148.972C32.0265 148.765 31.9162 148.527 31.859 148.274C31.8017 148.021 31.799 147.759 31.8508 147.505C31.9026 147.25 32.0079 147.01 32.1596 146.8C32.6205 146.15 33.3682 145.787 34.0134 145.36C34.7046 144.899 35.3959 144.426 36.0872 143.957C37.1702 143.225 38.2854 142.446 39.5297 142.011C40.4836 141.677 41.5078 141.665 42.3835 142.217C42.8793 142.55 43.309 142.972 43.6508 143.462C44.0103 143.941 44.3072 144.464 44.5344 145.018C44.8674 145.832 44.9512 146.727 44.7752 147.589C44.599 148.421 44.1704 149.174 43.6393 149.829C42.4664 151.271 40.7912 152.29 39.1207 153.06C37.7324 153.695 36.2128 154.26 34.6805 154.406C34.3348 154.438 33.8417 154.487 33.5664 154.225C33.0802 153.763 32.8428 153.042 32.6113 152.433C32.3728 151.806 32.1216 151.115 31.5744 150.687C30.905 150.165 29.9868 150.196 29.186 150.122C28.3985 150.064 27.6333 149.833 26.944 149.447C26.3438 149.101 25.7516 148.573 25.4463 147.934C25.2677 147.551 25.2274 147.104 25.2159 146.687C25.1652 145.436 25.3864 144.149 25.7412 142.953C26.1249 141.665 26.7125 140.404 27.7275 139.492C28.5754 138.733 29.7886 138.288 30.7932 139.031C31.8209 139.791 32.1481 141.223 32.147 142.431C32.1453 142.832 32.1106 143.233 32.0433 143.628C31.9799 144.017 31.8589 144.389 31.7817 144.774C31.7161 145.104 31.6976 145.523 31.9707 145.734C32.2437 145.945 32.662 145.965 33.0076 145.981C33.4892 146.003 33.9731 145.981 34.4546 146.013C35.457 146.068 36.4697 146.335 36.9962 147.268C37.298 147.806 37.4386 148.422 37.5181 149.03C37.6108 149.764 37.6189 150.507 37.5423 151.243C37.3971 152.733 36.9662 154.211 35.9777 155.364C35.1874 156.278 33.9327 157.084 32.6723 156.95C30.6654 156.736 30.9499 153.999 30.3831 152.622C30.2679 152.343 30.0916 152.068 29.807 151.98C29.4038 151.855 28.9936 152.084 28.6549 152.291C27.6295 152.933 26.7205 153.935 25.4935 154.188C25.2055 154.255 24.9062 154.257 24.6171 154.194C24.3281 154.132 24.0565 154.006 23.8218 153.826C23.3794 153.468 23.2319 152.914 23.1444 152.377C23.0568 151.839 23.013 151.239 22.6386 150.823C22.2642 150.406 21.7065 150.321 21.1628 150.361C20.5437 150.424 19.9401 150.592 19.3781 150.86C18.9173 151.07 18.4242 151.327 18.0797 151.71C17.9157 151.913 17.8309 152.169 17.8413 152.431C17.8517 152.692 17.9565 152.94 18.1362 153.13C18.5728 153.562 19.3355 153.707 19.907 153.495C20.0256 153.458 20.1352 153.396 20.2283 153.314C20.3215 153.232 20.3961 153.13 20.4473 153.017C20.551 152.753 20.4807 152.475 20.3966 152.216C20.2595 151.809 20.0967 151.41 19.9093 151.023C19.4358 150.013 18.8789 149.043 18.2445 148.125C17.9661 147.713 17.6581 147.322 17.3228 146.956C17.0751 146.691 16.7974 146.416 16.4633 146.263C16.3647 146.213 16.2532 146.192 16.143 146.204C16.1879 146.204 16.1234 146.204 16.1085 146.215C16.0532 146.233 16.1085 146.215 16.0647 146.232C16.0157 146.253 15.9735 146.288 15.9425 146.331C15.8517 146.455 15.7842 146.593 15.7432 146.741C15.6455 147.055 15.496 147.351 15.3008 147.615C14.9737 148.039 14.5107 148.336 13.9902 148.457C13.4696 148.577 12.9233 148.515 12.4436 148.279C11.6279 147.885 10.932 146.763 11.2281 145.846C11.394 145.333 11.8491 145.027 12.3422 144.872C13.1141 144.63 13.9644 144.7 14.7616 144.594C15.37 144.512 16.0474 144.384 16.5082 143.946C16.8968 143.588 17.2376 143.182 17.5221 142.737C17.8452 142.226 18.0317 141.641 18.0636 141.037C18.097 140.201 17.8216 139.392 17.4299 138.663C17.1511 138.143 16.908 137.573 17.0025 136.969C17.0365 136.759 17.116 136.559 17.2355 136.383C17.3549 136.207 17.5113 136.06 17.6938 135.951C18.5002 135.457 19.6281 135.632 20.3839 136.142C21.0522 136.592 21.3598 137.252 21.5752 138.004C21.8188 138.905 21.9678 139.829 22.0199 140.761C22.0982 141.797 22.0696 142.838 21.9347 143.868C21.748 145.222 21.1789 147.427 19.415 147.318C18.9426 147.288 18.4334 147.134 18.0843 146.802C17.7629 146.495 17.6373 146.065 17.5993 145.635C17.5543 145.128 17.62 144.615 17.6673 144.111C17.7361 143.533 17.7539 142.95 17.7203 142.368C17.6616 141.685 17.4164 141.03 17.0115 140.477C16.6065 139.923 16.0574 139.492 15.4241 139.229C14.1245 138.673 12.7074 139.06 11.606 139.865C10.4501 140.717 9.62775 141.946 9.28105 143.341C8.88473 144.97 8.83979 146.726 9.36631 148.331C9.54258 148.866 9.77991 149.441 10.1578 149.866C10.4798 150.222 10.8975 150.476 11.3606 150.599C11.841 150.72 12.3409 150.741 12.8299 150.662C13.3188 150.583 13.7864 150.404 14.204 150.137C15.0393 149.61 15.5658 148.711 15.4333 147.708C15.241 146.419 14.6634 145.218 13.7766 144.264C13.0853 143.504 12.2512 142.871 11.6555 142.024C11.3432 141.579 11.1151 141.08 10.9827 140.553C10.8894 140.179 10.8952 139.753 10.7177 139.449C10.6243 139.281 10.4714 139.154 10.2891 139.093C10.0909 139.032 9.87815 139.039 9.68429 139.113C9.17621 139.278 8.76837 139.784 8.57596 140.329C8.28563 141.146 8.36743 142.045 8.58979 142.867C8.9769 144.299 9.78568 145.593 10.6716 146.766C10.8364 146.984 10.4689 147.195 10.3064 146.98L10.303 146.994Z" fill="#657E47"/>
<path d="M269.992 145.505C270.223 156.873 261.582 167.266 241.946 167.266C222.311 167.266 210.426 160.421 210.25 144.862C210.056 127.773 227.331 119.618 241.616 120.923C259.34 122.542 269.7 130.853 269.992 145.505Z" fill="white"/>
<path d="M246.807 161.964C246.748 162.894 246.231 163.247 245.62 163.207L245.528 163.198C244.965 163.124 244.544 162.704 244.606 161.822C244.656 161.057 245.468 160.097 245.758 159.782C245.819 159.714 245.856 159.676 245.856 159.676C245.856 159.676 246.868 161.033 246.807 161.964Z" fill="#657E47"/>
<path d="M251.489 135.601C250.01 131.941 246.012 130.063 242.32 131.594C242.093 131.688 241.842 131.704 241.605 131.64C241.369 131.576 241.16 131.435 241.012 131.239C239.284 128.958 236.363 127.812 233.511 128.683C230.878 129.491 229.189 131.698 228.714 134.286C228.676 134.498 228.584 134.696 228.448 134.863C228.312 135.03 228.135 135.159 227.936 135.239C223.681 136.94 221.685 141.835 223.309 146.193C225.143 151.116 231 152.955 235.291 150.164C235.409 150.086 235.553 150.054 235.693 150.075C235.834 150.097 235.962 150.169 236.052 150.279C238.109 152.74 241.381 153.915 244.539 152.921C246.145 152.412 247.547 151.406 248.544 150.046C248.742 149.779 248.883 149.427 249.1 149.181C249.561 148.658 249.721 148.878 250.405 149.007C251.333 149.185 252.29 149.138 253.196 148.868C256.169 147.977 257.856 144.965 257.501 141.946C257.165 139.091 255.121 136.838 252.367 136.324C252.172 136.286 251.99 136.2 251.837 136.074C251.684 135.948 251.564 135.785 251.489 135.601V135.601Z" fill="#657E47"/>
<path d="M235.714 154.992C235.654 155.922 235.137 156.274 234.526 156.235C234.495 156.235 234.465 156.235 234.435 156.226C233.87 156.153 233.451 155.733 233.513 154.85C233.562 154.084 234.374 153.12 234.659 152.809C234.722 152.741 234.758 152.703 234.758 152.703C234.758 152.703 235.773 154.062 235.714 154.992Z" fill="#657E47"/>
<path d="M253.435 153.01C253.375 153.94 252.859 154.293 252.247 154.254L252.155 154.245C251.592 154.171 251.171 153.751 251.228 152.868C251.277 152.103 252.089 151.138 252.38 150.828L252.478 150.722C252.478 150.722 253.493 152.08 253.435 153.01Z" fill="#657E47"/>
<path d="M240.57 136.195L236.654 146.837L242.061 148.611L241.595 158.693L246.07 147.444L239.917 145.624L240.57 136.195Z" fill="#E76943"/>
<path d="M199.294 99.5275C201.827 99.5275 203.881 98.0523 203.881 96.2326C203.881 94.4128 201.827 92.9376 199.294 92.9376C196.761 92.9376 194.708 94.4128 194.708 96.2326C194.708 98.0523 196.761 99.5275 199.294 99.5275Z" fill="white"/>
<path d="M80.5529 92.535C83.0859 92.535 85.1394 91.0598 85.1394 89.2401C85.1394 87.4203 83.0859 85.9452 80.5529 85.9452C78.0198 85.9452 75.9663 87.4203 75.9663 89.2401C75.9663 91.0598 78.0198 92.535 80.5529 92.535Z" fill="white"/>
<path d="M138.151 64.317C140.685 64.317 142.738 62.8418 142.738 61.022C142.738 59.2023 140.685 57.7271 138.151 57.7271C135.618 57.7271 133.565 59.2023 133.565 61.022C133.565 62.8418 135.618 64.317 138.151 64.317Z" fill="white"/>
<path d="M184.916 24.6671C185.146 36.0343 176.39 49.3894 156.762 49.3894C137.133 49.3894 125.528 40.2268 125.352 24.6671C125.158 7.57865 142.361 -1.17552 156.646 0.126995C174.37 1.74562 184.623 10.0152 184.916 24.6671Z" fill="white"/>
<path d="M149.515 39.913C149.386 40.9859 148.763 41.362 148.059 41.2778L147.954 41.2617C147.304 41.1394 146.844 40.626 146.966 39.6073C147.072 38.7224 148.075 37.6633 148.425 37.3161C148.501 37.2411 148.547 37.2007 148.547 37.2007C148.547 37.2007 149.641 38.8378 149.515 39.913Z" fill="#01609A"/>
<path d="M163.192 39.8853C163.064 40.9594 162.44 41.3344 161.735 41.2501C161.7 41.2501 161.665 41.2409 161.631 41.234C160.982 41.1128 160.521 40.5995 160.643 39.5796C160.749 38.6959 161.751 37.6356 162.103 37.2884C162.179 37.2134 162.218 37.173 162.218 37.173C162.218 37.173 163.321 38.8112 163.192 39.8853Z" fill="#01609A"/>
<path d="M155.519 34.2242C155.391 35.2971 154.767 35.6732 154.063 35.589L153.958 35.5729C153.309 35.4506 152.849 34.9372 152.971 33.9185C153.076 33.0336 154.078 31.9745 154.43 31.6272L154.545 31.5119C154.545 31.5119 155.648 33.149 155.519 34.2242Z" fill="#01609A"/>
<path d="M22.9312 55.5962C22.7008 66.9624 31.3416 77.3571 50.977 77.3571C70.6124 77.3571 82.4975 70.5123 82.6738 54.9513C82.8674 37.8629 65.5927 29.7087 51.3077 31.0135C33.5836 32.6275 23.2239 40.9433 22.9312 55.5962Z" fill="white"/>
<path d="M61.8613 43.5541C59.2944 43.3672 57.1503 44.2336 55.7159 46.1406L57.0282 50.5246L54.7447 56.5088L56.588 60.4948L53.1133 68.8798C53.1133 68.8798 68.6956 62.5345 69.4364 52.3486C69.5166 51.2729 69.3843 50.1919 69.0469 49.1674C68.7095 48.143 68.1736 47.1952 67.47 46.3784C66.7664 45.5615 65.9089 44.8916 64.9465 44.407C63.9841 43.9223 62.9357 43.6325 61.8613 43.5541V43.5541Z" fill="#E76943"/>
<path d="M53.7423 50.5258L51.6823 46.2652C50.5417 44.3582 48.0174 43.058 45.4471 42.9449C40.9205 42.7465 37.0563 46.2583 36.857 50.79C36.4099 60.9955 50.6823 69.0297 50.6823 69.0297L53.3563 62.8079L50.8793 54.7437L53.7423 50.5258Z" fill="#E76943"/>
<path d="M263.367 66.1652C263.598 77.5313 254.957 87.926 235.322 87.926C215.686 87.926 203.801 81.0824 203.625 65.5203C203.433 48.433 220.706 40.2776 234.991 41.5824C252.715 43.201 263.075 51.5122 263.367 66.1652Z" fill="white"/>
<path d="M217.396 70.0427H214.885C214.377 70.0424 213.889 69.8399 213.53 69.4797C213.17 69.1195 212.968 68.631 212.968 68.1218V63.0952C212.968 62.8431 213.018 62.5934 213.114 62.3604C213.21 62.1274 213.351 61.9157 213.529 61.7374C213.707 61.5591 213.919 61.4177 214.152 61.3213C214.384 61.2249 214.634 61.1753 214.885 61.1755H217.396V70.0427Z" fill="#E8E2E4"/>
<path d="M250.157 73.9652C242.301 74.3298 226.553 74.0264 218.685 73.9652C218.364 73.9654 218.045 73.9021 217.749 73.7791C217.452 73.6561 217.182 73.4757 216.955 73.2483C216.727 73.0208 216.547 72.7508 216.424 72.4535C216.301 72.1563 216.238 71.8377 216.238 71.516V59.7022C216.238 59.3808 216.301 59.0625 216.424 58.7656C216.547 58.4686 216.727 58.1989 216.954 57.9717C217.421 57.5252 218.037 57.2696 218.683 57.2552C226.543 56.8722 242.287 57.1906 250.155 57.2552C250.774 57.2561 251.37 57.491 251.823 57.9128C252.307 58.3847 252.586 59.0282 252.601 59.7045C252.751 62.8333 252.751 68.5129 252.601 71.5183C252.587 72.1179 252.367 72.6944 251.979 73.1507C251.745 73.4013 251.463 73.6025 251.15 73.7424C250.837 73.8823 250.5 73.9581 250.157 73.9652V73.9652Z" fill="#E8E2E4"/>
<path d="M248.983 71.9209H245.412C245.048 71.9206 244.699 71.7756 244.441 71.5178C244.184 71.26 244.039 70.9104 244.039 70.5457V60.6713C244.039 60.3066 244.183 59.9568 244.441 59.6989C244.698 59.441 245.048 59.2961 245.412 59.2961H248.983C249.347 59.2964 249.697 59.4414 249.954 59.6992C250.211 59.957 250.356 60.3067 250.357 60.6713V70.5457C250.357 70.7264 250.321 70.9053 250.252 71.0722C250.183 71.2391 250.082 71.3907 249.955 71.5185C249.827 71.6462 249.676 71.7475 249.509 71.8165C249.342 71.8856 249.164 71.9211 248.983 71.9209V71.9209Z" fill="#E76943"/>
<path d="M167.027 14.4085C165.845 10.9001 162.204 8.92038 158.663 10.1491C158.445 10.2249 158.209 10.2262 157.991 10.1527C157.772 10.0792 157.585 9.93501 157.458 9.74296C155.967 7.51289 153.294 6.2819 150.575 6.93604C148.066 7.54403 146.362 9.51914 145.774 11.9165C145.727 12.1128 145.63 12.2938 145.493 12.4423C145.357 12.5909 145.184 12.7021 144.993 12.7656C140.914 14.1235 138.772 18.5963 140.056 22.7669C140.388 23.856 140.961 24.8564 141.731 25.6941C142.502 26.5318 143.45 27.1852 144.507 27.6062C145.564 28.0271 146.701 28.2048 147.836 28.126C148.97 28.0472 150.073 27.7139 151.061 27.1509C151.177 27.0848 151.312 27.0633 151.443 27.0905C151.573 27.1177 151.689 27.1917 151.768 27.2986C153.559 29.7213 156.558 30.9985 159.569 30.2428C161.101 29.8549 162.471 28.9895 163.48 27.7716C163.678 27.5328 163.825 27.2109 164.046 26.9929C164.507 26.5314 164.644 26.7437 165.278 26.9029C166.137 27.1202 167.036 27.1285 167.899 26.9271C170.732 26.2568 172.478 23.5295 172.312 20.688C172.155 17.9964 170.366 15.7721 167.818 15.1387C167.636 15.0934 167.468 15.0027 167.329 14.8751C167.191 14.7474 167.087 14.587 167.027 14.4085V14.4085Z" fill="#657E47"/>
<path d="M168.313 32.1556C168.184 33.2297 167.561 33.6047 166.857 33.5204L166.752 33.5043C166.102 33.3831 165.642 32.8686 165.764 31.8499C165.87 30.9662 166.873 29.9059 167.223 29.5587C167.299 29.4837 167.345 29.4433 167.345 29.4433C167.345 29.4433 168.441 31.0815 168.313 32.1556Z" fill="#01609A"/>
<path d="M144.063 31.9249C143.934 32.999 143.312 33.3739 142.607 33.2897L142.502 33.2735C141.853 33.1524 141.393 32.6379 141.515 31.6192C141.621 30.7354 142.623 29.6752 142.974 29.3279C143.051 29.2529 143.09 29.2126 143.09 29.2126C143.09 29.2126 144.191 30.8508 144.063 31.9249Z" fill="#01609A"/>
</svg>
